# xmcd
# Copyright (C) 1995-1998 Ti Kan
#
# Track frame offsets:
#       182
#       20447
#       33835
#       43831
#       63016
#       72670
#       83285
#       104825
#       124882
#       147233
#       166463
#       185377
#       201190
#       216348
#       227837
#       248767
#       258819
#       269897
#
# Disc length: 3906 seconds
#
# Revision: 0
# Processed by: cddbd v1.5.1PL0 Copyright (c) Steve Scherf et al.
# Submitted via: CD-Transfer v1.0
#
DISCID=0b0f4012
DTITLE=Antoine Dauvergne - Concert de simphonies - 
DYEAR=1994
DGENRE=
TTITLE0=2ème Concert de simphonie - Ouverture (Grave - Presto)
TTITLE1=2ème Concert de simphonie - Minuetto gratioso
TTITLE2=2ème Concert de simphonie - Andante
TTITLE3=2ème Concert de simphonie - Andantino
TTITLE4=2ème Concert de simphonie - Allegro
TTITLE5=2ème Concert de simphonie - Vivace
TTITLE6=2ème Concert de simphonie - Chaconne
TTITLE7=1er Concert de simphonies - Ourverture
TTITLE8=1er Concert de simphonies - Aria gratioso
TTITLE9=1er Concert de simphonies - Allegro
TTITLE10=1er Concert de simphonies - Chaconne
TTITLE11=4ème Concert de simphonies - Ouverture (grave - prestissimo) 
TTITLE12=4ème Concert de simphonies - Minuetto gratioso
TTITLE13=4ème Concert de simphonies - Andante
TTITLE14=4ème Concert de simphonies - Andantino gratioso
TTITLE15=4ème Concert de simphonies - Vivace
TTITLE16=4ème Concert de simphonies - Presto
TTITLE17=4ème Concert de simphonies - Chaconne
EXTD=
EXTT0=
EXTT1=
EXTT2=
EXTT3=
EXTT4=
EXTT5=
EXTT6=
EXTT7=
EXTT8=
EXTT9=
EXTT10=
EXTT11=
EXTT12=
EXTT13=
EXTT14=
EXTT15=
EXTT16=
EXTT17=
PLAYORDER=
